<svg xmlns="http://www.w3.org/2000/svg" viewBox="0 0 8643 12572"><path d="M8643 4322v8251H-1V1768h982V786c0-202 89-406 236-554C1356 92 1546 0 1763 0h397c239 0 427 89 561 224 153 154 231 366 231 571v974h387V993h393v776h2357c54 0 103 22 139 58l2357 2357c38 38 57 89 57 139zM1964 983v786h595V795c0-107-39-217-116-294-64-64-158-107-283-107h-397c-105 0-199 46-268 115-75 76-121 178-121 277v982h196V982h393zm1768 1179v1179c0 261-68 510-204 691-134 179-329 291-582 291H1764c-264 0-456-109-587-284-136-182-195-433-195-698V2162H393v10018h7857V4519H6089c-108 0-197-88-197-197V2161H3732zm-2357 0v1179c0 186 36 355 117 464 58 77 146 126 272 126h1182c118 0 207-52 269-133 83-110 124-275 124-456V2163H1375zm-197 6878h4217v393H1178v-393zm0-786h6286v393H1178v-393zm0-786h6286v393H1178v-393zm0-786h6286v393H1178v-393zm6793-2557L6285 2439v1686h1686z"/></svg>