<svg xmlns="http://www.w3.org/2000/svg" viewBox="0 0 16788 16787"><path d="M1904 8121c-140 37-283-46-321-186-37-140 46-283 186-321l6678-1798 877-3005c27-94 103-161 193-182l5163-1200-1691-939c-126-70-171-229-101-355s229-171 355-101l2361 1312c124 69 170 224 104 349l-1047 2094c-64 129-222 181-350 117-129-64-181-222-117-350l835-1670-5246 1220-870 2981c-20 94-90 173-189 199L1904 8122zm-656 1582h3436c143 0 274 59 370 154l1 1c94 95 154 226 154 370v788c0 144-59 276-154 371h-1c-79 78-182 132-296 148v794c129 9 247 66 334 152l1 1c94 95 154 226 154 370v788c0 144-59 276-154 371h-1c-95 94-226 154-370 154h-197v787h197c143 0 274 59 370 154l1 1c94 95 154 226 154 370v788c0 144-59 276-154 371h-1c-95 94-226 154-370 154H1312c-143 0-274-59-370-154h-1c-94-94-154-226-154-371v-788H524c-144 0-276-59-371-154-94-94-154-226-154-371v-788c0-143 59-274 154-370v-1c94-94 226-154 371-154h263v-787c-139-3-267-61-360-154h-1c-94-94-154-226-154-371v-788c0-143 59-274 154-370v-1c78-78 182-132 297-148v-793c0-143 59-274 154-370v-1c94-94 226-154 371-154zm3435 525H1248v787h3435v-787zm-451 1312H797v787h3435v-787zm489 1312H1311v787h3410v-787zm-722 1312H524v787h3475v-787zm722 1312H1311v787h3410v-787zm4747-6558H6033v787h3435v-787zm-3435-525h3436c143 0 274 59 370 154l1 1c94 95 154 226 154 370v789c135 6 257 64 346 153v1c94 95 154 226 154 370v787c144 0 276 59 371 154 94 94 154 226 154 371v788c0 144-59 276-154 371-94 94-226 154-371 154h-5v787c0 144-59 276-154 371-94 94-224 152-366 154v788c139 3 266 62 358 153v1c94 95 154 226 154 370v788c0 144-59 276-154 371-94 94-226 154-371 154H6558c-144 0-276-59-371-154-94-94-154-226-154-371v-788c-143 0-274-59-370-154h-1c-94-94-154-226-154-371v-788c0-143 59-274 154-370v-1c94-94 226-154 371-154v-787c0-143 59-274 154-370v-1c94-94 226-154 371-154h11v-787h-36c-144 0-276-59-371-154-94-94-154-226-154-371v-789c-134-7-255-64-345-153h-1c-94-94-154-226-154-371v-788c0-143 59-274 154-370v-1c94-94 226-154 371-154zm3935 1837H6533v787h3435v-787zm524 1311H7093v787h3399v-787zm-529 1311H6558v787h3405v-787zm-520 1312H6033v787h3410v-787zm512 1312H6558v787h3397v-787zm2873-9707h3436c143 0 274 59 370 154l1 1c94 95 154 226 154 370v788c0 144-59 276-154 371h-1c-95 94-226 154-370 154h-4v787h4c143 0 274 59 370 154l1 1c94 95 154 226 154 370v788c0 144-59 276-154 371h-1c-94 94-223 152-365 154v788c0 144-59 276-154 371h-1c-35 34-74 64-117 88 2 21 4 43 4 66v788c0 23-2 46-5 68 41 23 79 52 112 85l1 1c94 95 154 226 154 370v788c0 144-59 276-154 371h-1c-94 93-222 151-362 154v787c143 0 274 59 368 154l1 1c94 95 154 226 154 370v788c0 144-59 276-154 371h-1c-95 94-226 154-370 154h-3436c-143 0-274-59-370-154h-1c-94-94-154-226-154-371v-788c-143 0-274-59-368-154h-1c-94-94-154-226-154-371v-788c0-143 59-274 154-370v-1c94-94 226-154 371-154h53v-787l2-51c-54-26-103-60-145-102h-1c-94-94-154-226-154-371v-788c0-143 59-274 154-370v-1c28-28 60-53 94-75-4-26-6-52-6-79v-788c0-143 59-274 154-370v-1c94-94 223-152 366-154v-792c-135-18-257-81-349-173l-1-1c-110-110-178-262-178-429v-703c0-143 59-274 154-370v-1c94-94 226-154 371-154h4v-787c0-143 59-274 154-370v-1c94-94 226-154 371-154zm3435 525h-3435v787h3435v-787zm-529 1312h-3435v702c0 23 9 44 24 59l1 1c15 15 37 24 59 24h3351v-787zm529 1312h-3435v787h3435v-787zm-520 1312h-3435v787h3435v-787zm-267 1312h-3410v787h3410v-787zm262 1312h-3375v787h3375v-787zm-517 1312h-3435v787h3435v-787zm523 1312h-3435v787h3435v-787z"/></svg>