<svg xmlns="http://www.w3.org/2000/svg" viewBox="0 0 64000 54000"><path d="M1000 0h61999c552 0 1000 449 1000 1000v51999c0 552-449 1000-1000 1000H1000c-552 0-1000-449-1000-1000V1000C0 448 449 0 1000 0zm44079 47999c-552 0-1000-449-1000-1000 0-552 449-1000 1000-1000h9921c552 0 1000 449 1000 1000 0 552-449 1000-1000 1000h-9921zm3999-4999c-552 0-1000-449-1000-1000 0-552 449-1000 1000-1000h9921c552 0 1000 449 1000 1000 0 552-449 1000-1000 1000h-9921zM5000 16001c-552 0-1000-449-1000-1000 0-552 449-1000 1000-1000h9921c552 0 1000 449 1000 1000 0 552-449 1000-1000 1000H5000zm3999 4999c-552 0-1000-449-1000-1000 0-552 449-1000 1000-1000h9921c552 0 1000 449 1000 1000 0 552-449 1000-1000 1000H8999zm3543 4999h24431c581-1644 1630-3071 2981-4117 1522-1179 3432-1883 5503-1883 2480 0 4729 1007 6359 2636l2 2 2 2 1 1c1629 1630 2635 3880 2635 6358 0 2480-1007 4729-2636 6359l-2 2-2 2-1 1c-1630 1629-3879 2635-6358 2635-2070 0-3980-704-5503-1883-1351-1046-2400-2473-2981-4117H25002v4999c0 552-449 1000-1000 1000h-3001c-552 0-1000-449-1000-1000v-999h-2000v2000c0 552-449 1000-1000 1000h-3970c-552 0-1000-449-1000-1000v-6045c-621-109-1179-409-1606-836l-67-74c-503-536-813-1257-813-2044 0-827 338-1578 880-2120l74-67c536-503 1257-813 2044-813zm25166 2001H12542c-259 0-494 98-668 256l-35 38c-181 181-294 431-294 705 0 259 98 494 256 668l38 35c181 181 432 295 704 295h488c552 0 1000 449 1000 1000v6000h1969v-2000c0-552 449-1000 1000-1000h4000c552 0 1000 449 1000 1000v999h1000v-4999c0-552 449-1000 1000-1000h13708v5c444 0 852 299 965 750 391 1522 1289 2848 2499 3785 1181 914 2668 1460 4284 1460 1936 0 3687-783 4949-2046l5-5c1263-1261 2046-3013 2046-4949 0-1935-783-3687-2046-4949l-5-5c-1261-1263-3013-2046-4949-2046-1616 0-3103 546-4284 1460-1188 920-2075 2216-2477 3703-78 475-491 837-987 837zm-27352 3044c-321-392-299-974 67-1341m74-2891c392-321 974-299 1341 67m33819-1880c1102 0 2102 449 2826 1174l2-2c724 724 1172 1727 1172 2829 0 1101-448 2100-1172 2824l-5 5c-724 724-1723 1172-2824 1172-1102 0-2105-448-2829-1172l-59-65c-690-719-1113-1694-1113-2764 0-1102 448-2105 1172-2829s1727-1172 2829-1172zm1414 2582c-358-358-859-581-1414-581-550 0-1052 224-1414 586-361 361-586 863-586 1414 0 533 206 1016 539 1370l47 44c361 361 863 586 1414 586 555 0 1056-223 1414-581l5-5c358-358 581-859 581-1414 0-550-224-1052-586-1414l2-2-2-2zM14999 4000h2000v2001h-2000V4000zm-4999 0h2000v2001h-2000V4000zm-4999 0h2000v2001H5001V4000zm56999 6001H2001v41999h59999V10001zM2001 8000h59999V2001H2001v5999z"/></svg>