<svg xmlns="http://www.w3.org/2000/svg" viewBox="0 0 30 30"><path d="M23.7 15c0 .3.3.7.8.7s.8-.3.8-.8c0-5.6-4.5-10-10-10-.4 0-.8.2-.8.7s.3.8.8.8c4.6 0 8.4 3.7 8.4 8.4zm-9.2-5.3c0 .4.3.8.8.8 2.4 0 4.3 2 4.3 4.3 0 .4.3.8.8.8s.8-.3.8-.8c0-3.2-2.6-5.8-5.8-5.8-.6 0-1 .3-1 .7zm.7-9.5c-.4 0-.8.3-.8.8s.3.8.8.8c7.2 0 13 6 13 13 0 .5.4 1 1 1s.7-.4.7-1C29.7 7 23.2.3 15 .3zm4.2 17.5l-.5-.2c-.3 0-.5 0-.6.2l-1.6 1.6c-.6.6-1.6.6-2.2 0L11 16c-.7-.7-.7-1.7 0-2.3l1.7-1.8c.3-.4.3-1 0-1.2L5.3 3.5l-.5-.2c-.2 0-.4 0-.5.2l-3 3C0 8 0 10.8 1 13.3c2.2 5.5 9.5 12.2 15.6 16 .5.2 1.7.5 3 .5 1 0 2.6-.2 4-1.4 1.3-1 2.8-2.7 3-2.8.2-.3.2-.8 0-1l-7-7zm3 9.5c-1 1-2.2 1-3 1-1.2 0-2-.3-2.2-.4-7-4-13.2-10.4-15-15-.8-2.2-.5-4.5.2-5.3L4.8 5l6.2 6.3-1.3 1.3c-1.2 1.2-1.2 3 0 4.3l3.7 3.3c1 1 3 1 4.3 0l1-1 6 5.7c-.6.7-1.5 1.6-2.3 2.2z"/></svg>
