<svg xmlns="http://www.w3.org/2000/svg" width="49.1" height="64" viewBox="0 0 49.1 64"><path fill="#fff" d="M49.1 24.5A24.5 24.5 0 0 0 0 24v1.3C.3 41.2 18.3 58 24.5 64c17.4-14.1 22.5-27.2 24-34.2v-.7c.1-.8.2-1.4.3-2a15.7 15.7 0 0 0 .3-2.6z"/><path fill="#010101" d="M10.5 12.8h1.2l4.7 8 4.6-8h1.3L16.4 23zm11.9 3.1V36h-1.2V20.1l-1.7 3V36h-1.3V25l-1.8 3.3-1.9-3.1V36h-1.1V23.2l-1.8-3V36h-1.1V16l5.9 10.1zM35.3 17.3a3.8 3.8 0 0 0-3-1.6 3.4 3.4 0 0 0-1.6.4 2.5 2.5 0 0 0-1.1 1.1 2.1 2.1 0 0 0-.2 1.4 2.7 2.7 0 0 0 .7 1.3 7.8 7.8 0 0 0 1.8 1.1l2.5 1.3A16.1 16.1 0 0 1 37 24l1.3 1.2a8.1 8.1 0 0 1 .9 1.6 5.9 5.9 0 0 1 .4 1.8 6.8 6.8 0 0 1-.1 1.7 5.9 5.9 0 0 1-1.6 3.2 7.4 7.4 0 0 1-3.3 2 8.1 8.1 0 0 1-3.8.3 9.9 9.9 0 0 1-3.4-1.2 11.6 11.6 0 0 1-2.6-2l.9-.7a10.6 10.6 0 0 0 2.3 1.8 8.3 8.3 0 0 0 3 1.1 7.4 7.4 0 0 0 3.2-.2 5.8 5.8 0 0 0 2.7-1.7 5.2 5.2 0 0 0 1.4-2.7 5.6 5.6 0 0 0-.2-2.9 5.9 5.9 0 0 0-1.8-2.4 16.5 16.5 0 0 0-2.4-1.6L31.4 22l-.6-.3-1.4-1a3.2 3.2 0 0 1-1-1.9 2.9 2.9 0 0 1 .3-2 3.3 3.3 0 0 1 1.5-1.5 4.7 4.7 0 0 1 2.2-.5 4.8 4.8 0 0 1 4 2.1zm2.5-1.4l-.5-.6-.6-.5-1.3-.9a6.3 6.3 0 0 0-3.1-.8l-1.6.2-1.5.6a5.2 5.2 0 0 0-2.3 2.1 4.7 4.7 0 0 0-.5 3 4.8 4.8 0 0 0 1.5 2.7l1.2 1 3.7 2c1.5.8 3 1.8 3.5 3.2a4.1 4.1 0 0 1 .1 2.1 3.8 3.8 0 0 1-1 1.9 4.1 4.1 0 0 1-1.8 1.1 5.8 5.8 0 0 1-2.4.2 7.7 7.7 0 0 1-4.2-2.3l.9-.7a6.4 6.4 0 0 0 3.5 2 3.4 3.4 0 0 0 3.2-.9 2.8 2.8 0 0 0 .7-1.4 2.9 2.9 0 0 0-.1-1.6 3.4 3.4 0 0 0-1-1.3l-2-1.3c-1.8-1-3.8-1.7-5.2-3.1a5.9 5.9 0 0 1-1.7-3.2 5.4 5.4 0 0 1 .6-3.6 6.4 6.4 0 0 1 2.7-2.6l1.8-.7 1.9-.2a7.8 7.8 0 0 1 3.7 1 8.2 8.2 0 0 1 1.5 1 5.8 5.8 0 0 1 1.2 1.3z" opacity=".3"/><path fill="#010101" d="M9.5 12.9h1.2l4.7 8 4.6-8h1.3L15.4 23zM21.4 16v20.1h-1.2V20.2l-1.7 3v12.9h-1.2v-11l-1.8 3.3-1.9-3.1v10.8h-1.2V23.3l-1.8-3v15.8H9.5v-20l5.9 10.1zM34.4 17.4a3.8 3.8 0 0 0-3-1.6 3.4 3.4 0 0 0-1.6.4 2.5 2.5 0 0 0-1.1 1.1 2.1 2.1 0 0 0-.2 1.4 2.7 2.7 0 0 0 .7 1.3 7.8 7.8 0 0 0 1.7 1l2.5 1.3a16.1 16.1 0 0 1 2.6 1.8l1.3 1.2a8.1 8.1 0 0 1 .9 1.6 5.9 5.9 0 0 1 .4 1.8 6.8 6.8 0 0 1-.1 1.7 5.9 5.9 0 0 1-1.6 3.2 7.4 7.4 0 0 1-3.3 2 8.1 8.1 0 0 1-3.8.3 9.9 9.9 0 0 1-3.4-1.2 11.6 11.6 0 0 1-2.6-2l.9-.7a10.6 10.6 0 0 0 2.3 1.8 8.3 8.3 0 0 0 3 1 7.4 7.4 0 0 0 3.2-.2 5.8 5.8 0 0 0 2.7-1.7 5.2 5.2 0 0 0 1.4-2.7 5.6 5.6 0 0 0-.2-2.9 5.9 5.9 0 0 0-1.8-2.4 16.5 16.5 0 0 0-2.4-1.6L30.3 22l-.6-.3-1.4-1a3.2 3.2 0 0 1-1-1.9 2.9 2.9 0 0 1 .3-2 3.3 3.3 0 0 1 1.5-1.5 4.7 4.7 0 0 1 2.2-.5 4.8 4.8 0 0 1 4 2.1zm2.5-1.4l-.5-.6-.6-.5-1.3-.9a6.3 6.3 0 0 0-3.1-.8l-1.6.2-1.5.6a5.2 5.2 0 0 0-2.3 2.1 4.7 4.7 0 0 0-.5 3 4.8 4.8 0 0 0 1.5 2.7l1.2 1 3.7 2c1.5.8 3 1.8 3.5 3.2a4.1 4.1 0 0 1 .1 2.1 3.8 3.8 0 0 1-1 1.9 4.1 4.1 0 0 1-1.9 1.2 5.8 5.8 0 0 1-2.4.2 7.7 7.7 0 0 1-4.2-2.3l.9-.7a6.4 6.4 0 0 0 3.5 2 3.4 3.4 0 0 0 3.2-.9 2.8 2.8 0 0 0 .7-1.4 2.9 2.9 0 0 0-.1-1.6 3.4 3.4 0 0 0-1-1.3l-2-1.3c-1.8-1-3.8-1.7-5.2-3.1a5.9 5.9 0 0 1-1.7-3.2 5.4 5.4 0 0 1 .6-3.6 6.4 6.4 0 0 1 2.7-2.6l1.8-.7 1.9-.2a7.8 7.8 0 0 1 3.7 1 8.2 8.2 0 0 1 1.5 1 5.8 5.8 0 0 1 1.2 1.3z"/></svg>
