<svg xmlns="http://www.w3.org/2000/svg" viewBox="0 0 336 270"><title>logo</title><circle cx="168" cy="174" r="96" fill="#303030"/><path d="M110.7,128h5L135,160.7,153.8,128h5.1l-24,41.7ZM160,140.2V223h-5V157.6l-7,12.3V223h-6V177.7l-7.4,13.6L127,178.5V223h-5V170.5l-7-12.2V223h-4V141l24.4,41.7Z" fill="#fff"/><path d="M212.7,146.6a15.6,15.6,0,0,0-12.2-6.4,14,14,0,0,0-6.8,1.6,10.2,10.2,0,0,0-4.5,4.3,8.8,8.8,0,0,0-.9,5.6,11.2,11.2,0,0,0,3,5.3c1.6,1.6,3.1,2.2,7.3,4.6s6.6,3.5,10.3,5.4a66.3,66.3,0,0,1,10.7,7,38.8,38.8,0,0,1,5.1,5.1,33.2,33.2,0,0,1,3.8,6.7,24,24,0,0,1,1.5,7.4,27.7,27.7,0,0,1-.5,6.8,24.1,24.1,0,0,1-6.5,13.3,30.4,30.4,0,0,1-13.4,8.1,33.2,33.2,0,0,1-15.6,1.1,40.5,40.5,0,0,1-13.8-4.9,47.7,47.7,0,0,1-10.6-8.4l3.7-2.8a43.6,43.6,0,0,0,9.5,7.4,34,34,0,0,0,12.1,4.3,30.3,30.3,0,0,0,13.3-.9,23.7,23.7,0,0,0,11.1-6.8,21.4,21.4,0,0,0,5.6-11.1,23.2,23.2,0,0,0-.8-12.1,24.4,24.4,0,0,0-7.6-10,67.9,67.9,0,0,0-10-6.4l-10.2-5.3-2.6-1.4a26.5,26.5,0,0,1-5.8-4.1,12.9,12.9,0,0,1-4.2-7.7,11.9,11.9,0,0,1,1.4-8.3,13.4,13.4,0,0,1,6.4-6.2,19.4,19.4,0,0,1,9.2-2.2c6.4,0,13.3,3.5,16.3,8.5Zm10.3-5.9c-.7-1-1.4-1.6-2-2.5l-2.3-2.2a26.7,26.7,0,0,0-5.3-3.6,25.8,25.8,0,0,0-12.9-3.3,29.4,29.4,0,0,0-6.6.7,30.1,30.1,0,0,0-6.4,2.3,21.3,21.3,0,0,0-9.2,9,19.5,19.5,0,0,0-2,12.3,19.8,19.8,0,0,0,6.1,11,23.9,23.9,0,0,0,5,4c4.9,3,10.2,5.2,15.2,8s12.5,7.5,14.5,13a17,17,0,0,1,.5,8.8,15.4,15.4,0,0,1-3.9,7.9,17,17,0,0,1-7.9,4.8,23.7,23.7,0,0,1-9.8.6c-6.5-1-12.5-4.8-17.2-9.6l3.7-3c4.2,4.3,9.1,7.3,14.4,8.1s10.2-.5,13-3.8a11.4,11.4,0,0,0,2.8-5.8,12.1,12.1,0,0,0-.3-6.7,14,14,0,0,0-4.2-5.3,48,48,0,0,0-8.1-5.2c-7.6-4.1-15.6-7-21.4-12.8a24,24,0,0,1-7.2-13.3,22.2,22.2,0,0,1,2.4-14.9,26.4,26.4,0,0,1,11.1-10.9,31.6,31.6,0,0,1,7.6-2.8,41.2,41.2,0,0,1,7.9-.9,32.2,32.2,0,0,1,15.3,4,33.6,33.6,0,0,1,6.2,4.2,23.6,23.6,0,0,1,5,5.4Z" fill="#fff"/><path d="M23.5,20.3,40.6,0H47V41H42V5.4L23.5,27.6,5,5.4V41H0V0H6.4Z" fill="#303030"/><path d="M59.8,0H87.2A6.6,6.6,0,0,1,92,2a6.6,6.6,0,0,1,2,4.8V41H90V26H58V41H53V6.8A6.6,6.6,0,0,1,55,2,6.6,6.6,0,0,1,59.8,0ZM58,22H90V7.2a2.2,2.2,0,0,0-.8-1.8A2.3,2.3,0,0,0,87.7,5H60.3a2.3,2.3,0,0,0-1.5.5A2.2,2.2,0,0,0,58,7.2Z" fill="#303030"/><path d="M141,6.8V19.3a6.4,6.4,0,0,1-2,4.8,6.6,6.6,0,0,1-4.8,2H128l12.8,15h-6L122.1,26H107.2l-2.2-.2V41h-5V0h34.2A6.6,6.6,0,0,1,139,2,6.6,6.6,0,0,1,141,6.8ZM105.9,20.6a2.8,2.8,0,0,0,1.4.4h27.5a2.1,2.1,0,0,0,1.6-.6,2,2,0,0,0,.6-1.5V7.3a2.7,2.7,0,0,0-.5-1.5,2.1,2.1,0,0,0-1.7-.8H107.3a2.3,2.3,0,0,0-1.4.5,2.1,2.1,0,0,0-.9,1.7V18.9A2,2,0,0,0,105.9,20.6Z" fill="#303030"/><path d="M188,6.9V9h-4V7.3a2.3,2.3,0,0,0-.8-1.8,2.3,2.3,0,0,0-1.5-.5H154.4a2.3,2.3,0,0,0-1.5.5,2.4,2.4,0,0,0-.8,1.8v8.5a2.1,2.1,0,0,0,.6,1.5,2.1,2.1,0,0,0,1.5.6h27a6.5,6.5,0,0,1,4.8,2,6.7,6.7,0,0,1,2,4.9v9.2a6.7,6.7,0,0,1-2,4.9,6.5,6.5,0,0,1-4.8,2H153.9a6.7,6.7,0,0,1-3.7-1.1,6.3,6.3,0,0,1-3.2-5.4V33h5v.7a2.3,2.3,0,0,0,.8,1.8,2.2,2.2,0,0,0,1.5.5h27.5a2.3,2.3,0,0,0,1.4-.4,2.1,2.1,0,0,0,.9-1.7V25.2a2.2,2.2,0,0,0-.7-1.7,2.3,2.3,0,0,0-1.5-.5H153.8a6.6,6.6,0,0,1-4.8-2,6.7,6.7,0,0,1-2-4.9V6.9A6.7,6.7,0,0,1,149,2a6.6,6.6,0,0,1,4.8-2h27.3A6.6,6.6,0,0,1,186,2,6.7,6.7,0,0,1,188,6.9Z" fill="#303030"/><path d="M192,0h41V5H215V41h-5V5H192Z" fill="#303030"/><path d="M278,6.8V19.3a6.4,6.4,0,0,1-2,4.8,6.6,6.6,0,0,1-4.8,2H265l12.8,15h-6L259.1,26H244.2l-2.2-.2V41h-5V0h34.2A6.6,6.6,0,0,1,276,2,6.6,6.6,0,0,1,278,6.8ZM241.9,20.6a2.8,2.8,0,0,0,1.4.4h27.5a2.1,2.1,0,0,0,1.6-.6,2,2,0,0,0,.6-1.5V7.3a2.7,2.7,0,0,0-.5-1.5,2.1,2.1,0,0,0-1.7-.8H243.3a2.3,2.3,0,0,0-1.4.5,2.1,2.1,0,0,0-.9,1.7V18.9A2,2,0,0,0,241.9,20.6Z" fill="#303030"/><path d="M290.8,0h27.3A6.6,6.6,0,0,1,323,2a6.6,6.6,0,0,1,2,4.8V34.2a6.8,6.8,0,0,1-6.8,6.8H290.8a6.8,6.8,0,0,1-6.8-6.8V6.8A6.6,6.6,0,0,1,286,2,6.6,6.6,0,0,1,290.8,0Zm-.5,36h27.3a2.3,2.3,0,0,0,1.5-.5,2.2,2.2,0,0,0,.9-1.8V6.2a2.2,2.2,0,0,0-.9-1.8,2.3,2.3,0,0,0-1.5-.5H290.3a2.3,2.3,0,0,0-1.5.5,2.2,2.2,0,0,0-.9,1.8V33.8a2.2,2.2,0,0,0,.9,1.8A2.3,2.3,0,0,0,290.3,36Z" fill="#303030"/><path d="M331,41V0h5V41Z" fill="#303030"/></svg>