<svg xmlns="http://www.w3.org/2000/svg" viewBox="0 0 200 200"><g fill="#929292">
  <path d="M153.3 157h-4c-1.5 0-2.7-1.3-2.7-2.8s1.3-2.8 2.8-2.8h4c10.6 0 19.3-8.7 19.3-19.4V50.7h-121v15c0 1.5-1.4 2.7-3 2.7S46 67 46 65.6V47.8c0-1.6 1.3-2.8 2.8-2.8h127c1.5 0 2.7 1.3 2.7 2.8v84c0 14-11.3 25.2-25.2 25.2z"/><path d="M151.3 157h-104c-14 0-25.7-11.6-25.7-25.8V65.5c0-1.6 1.3-2.8 2.8-2.8h127c1.5 0 2.7 1.3 2.7 2.8v63.2c0 8.3 4.6 16 12 19.8 1.3.7 1.8 2.5 1 3.8-.8 1.4-2.5 2-3.8 1-9-5-14.8-14.4-14.8-24.7V68.4h-121v62.8c0 11 9 20 20 20h104c1.5 0 2.7 1.4 2.7 3s-1.2 2.8-2.7 2.8z"/><path d="M112 78.6H99c-.7 0-1.3-.6-1.3-1.4s.6-1.4 1.4-1.4h13.2c.8 0 1.4.6 1.4 1.4s-.7 1.4-1.5 1.4zM139.4 78.6h-18.8c-.8 0-1.4-.6-1.4-1.4s.6-1.4 1.4-1.4h18.8c.8 0 1.4.6 1.4 1.4s-.6 1.4-1.4 1.4zM52.7 99.4H34c-1 0-1.5-.6-1.5-1.4s.6-1.4 1.4-1.4h18.7c.8 0 1.4.6 1.4 1.4s-.5 1.4-1.3 1.4zM52.7 94.4H34c-1 0-1.5-.6-1.5-1.4s.6-1.4 1.4-1.4h18.7c.8 0 1.4.6 1.4 1.4 0 .8-.5 1.4-1.3 1.4zM52.7 104.3H34c-1 0-1.5-.6-1.5-1.4s.6-1.5 1.4-1.5h18.7c.8 0 1.4.6 1.4 1.4s-.5 1.3-1.3 1.3zM52.7 109.3H34c-1 0-1.5-.6-1.5-1.4s.6-1.5 1.4-1.5h18.7c.8 0 1.4.6 1.4 1.4s-.5 1.3-1.3 1.3zM52.7 114.2H34c-1 0-1.5-.6-1.5-1.4s.6-1.4 1.4-1.4h18.7c.8 0 1.4.6 1.4 1.4s-.5 1.4-1.3 1.4zM52.7 119.2H34c-1 0-1.5-.6-1.5-1.4s.6-1.4 1.4-1.4h18.7c.8 0 1.4.6 1.4 1.4 0 .8-.5 1.4-1.3 1.4zM86 81H35.5c-1.6 0-2.8-1.3-2.8-2.8s1.3-2.8 2.8-2.8H86c1.5 0 2.7 1.3 2.7 2.8S87.5 81 86 81zM139.4 89.5H34c-1 0-1.5-.6-1.5-1.4s.6-1.3 1.4-1.3h105.4c.8 0 1.4.6 1.4 1.4s-.6 1.5-1.4 1.5zM99 94.7H59.5c-.8 0-1.4-.6-1.4-1.4s.6-1.4 1.4-1.4H99c1 0 1.5.5 1.5 1.3 0 .7-.7 1.4-1.4 1.4zM99 99.6H59.5c-.8 0-1.4-.6-1.4-1.4s.6-1.4 1.4-1.4H99c1 0 1.5.6 1.5 1.4s-.7 1.4-1.4 1.4zM99 104.5H59.5c-.8 0-1.4-.6-1.4-1.4s.6-1.3 1.4-1.3H99c1 0 1.5.6 1.5 1.4s-.7 1.5-1.4 1.5zM99 109.4H59.5c-.8 0-1.4-.6-1.4-1.4s.6-1.4 1.4-1.4H99c1 0 1.5.6 1.5 1.4s-.7 1.4-1.4 1.4zM99 114.3H59.5c-.8 0-1.4-.6-1.4-1.4s.6-1.5 1.4-1.5H99c1 0 1.5.6 1.5 1.4 0 .7-.7 1.3-1.4 1.3zM99 119.2H59.5c-.8 0-1.4-.6-1.4-1.4s.6-1.4 1.4-1.4H99c1 0 1.5.6 1.5 1.4 0 .8-.7 1.4-1.4 1.4zM139.4 134h-35c-.8 0-1.4-.5-1.4-1.3s.6-1.4 1.4-1.4h35c.8 0 1.4.6 1.4 1.4 0 .7-.6 1.4-1.4 1.4zM139.4 139h-35c-.8 0-1.4-.6-1.4-1.4 0-.8.6-1.4 1.4-1.4h35c.8 0 1.4.6 1.4 1.4 0 .8-.6 1.4-1.4 1.4zM139.4 144h-35c-.8 0-1.4-.6-1.4-1.4s.6-1.4 1.4-1.4h35c.8 0 1.4.6 1.4 1.4s-.6 1.4-1.4 1.4zM139.4 149h-35c-.8 0-1.4-.7-1.4-1.5s.6-1.4 1.4-1.4h35c.8 0 1.4.7 1.4 1.5s-.6 1.4-1.4 1.4zM164.6 71H153c-.8 0-1.4-.5-1.4-1.3s.6-1.4 1.4-1.4h11.6c.8 0 1.4.6 1.4 1.4s-.6 1.4-1.4 1.4zM164.6 76H153c-.8 0-1.4-.5-1.4-1.3s.6-1.4 1.4-1.4h11.6c.8 0 1.4.6 1.4 1.4s-.6 1.4-1.4 1.4zM164.6 81H153c-.8 0-1.4-.6-1.4-1.4s.6-1.4 1.4-1.4h11.6c.8 0 1.4.6 1.4 1.4s-.6 1.4-1.4 1.4zM164.6 86H153c-.8 0-1.4-.6-1.4-1.4s.6-1.4 1.4-1.4h11.6c.8 0 1.4.6 1.4 1.4s-.6 1.4-1.4 1.4zM164.6 91H153c-.8 0-1.4-.6-1.4-1.4s.6-1.4 1.4-1.4h11.6c.8 0 1.4.6 1.4 1.4 0 .7-.6 1.4-1.4 1.4zM164.6 96H153c-.8 0-1.4-.7-1.4-1.5s.6-1.4 1.4-1.4h11.6c.8 0 1.4.7 1.4 1.5s-.6 1.4-1.4 1.4zM164.6 101H153c-.8 0-1.4-.7-1.4-1.5s.6-1.4 1.4-1.4h11.6c.8 0 1.4.7 1.4 1.5s-.6 1.4-1.4 1.4zM164.6 105.8H153c-.8 0-1.4-.6-1.4-1.4s.6-1.4 1.4-1.4h11.6c.8 0 1.4.6 1.4 1.4 0 .8-.6 1.4-1.4 1.4zM164.6 110.8H153c-.8 0-1.4-.6-1.4-1.4s.6-1.4 1.4-1.4h11.6c.8 0 1.4.6 1.4 1.4s-.6 1.4-1.4 1.4zM164.6 115.7H153c-.8 0-1.4-.6-1.4-1.4s.6-1.4 1.4-1.4h11.6c.8 0 1.4.5 1.4 1.3s-.6 1.4-1.4 1.4zM164.6 120.7H153c-.8 0-1.4-.6-1.4-1.4s.6-1.4 1.4-1.4h11.6c.8 0 1.4.5 1.4 1.3 0 .7-.6 1.4-1.4 1.4zM164.6 125.6H153c-.8 0-1.4-.6-1.4-1.4s.6-1.4 1.4-1.4h11.6c.8 0 1.4.6 1.4 1.4s-.6 1.4-1.4 1.4zM100 124H34c-1 0-1.5-.5-1.5-1.3s.6-1.4 1.4-1.4h66c1 0 1.5.6 1.5 1.4s-.6 1.4-1.4 1.4zM64.2 129H34c-1 0-1.5-.5-1.5-1.3s.6-1.4 1.4-1.4H64c.8 0 1.4.6 1.4 1.4 0 .8-.6 1.4-1.4 1.4zM100 129H70c-.8 0-1.4-.5-1.4-1.3s.6-1.4 1.4-1.4H100c1 0 1.5.6 1.5 1.4 0 .8-.6 1.4-1.4 1.4zM64.2 134H34c-1 0-1.5-.5-1.5-1.3s.6-1.4 1.4-1.4H64c.8 0 1.4.6 1.4 1.4 0 .7-.6 1.4-1.4 1.4zM100 134H70c-.8 0-1.4-.5-1.4-1.3s.6-1.4 1.4-1.4H100c1 0 1.5.6 1.5 1.4 0 .7-.6 1.4-1.4 1.4zM64.2 139H34c-1 0-1.5-.6-1.5-1.4 0-.8.6-1.4 1.4-1.4H64c.8 0 1.4.6 1.4 1.4 0 .8-.6 1.4-1.4 1.4zM100 139H70c-.8 0-1.4-.6-1.4-1.4 0-.8.6-1.4 1.4-1.4H100c1 0 1.5.6 1.5 1.4 0 .8-.6 1.4-1.4 1.4zM64.2 144H34c-1 0-1.5-.6-1.5-1.4s.6-1.4 1.4-1.4H64c.8 0 1.4.6 1.4 1.4s-.6 1.4-1.4 1.4zM100 144H70c-.8 0-1.4-.6-1.4-1.4s.6-1.4 1.4-1.4H100c1 0 1.5.6 1.5 1.4s-.6 1.4-1.4 1.4zM64.2 149H34c-1 0-1.5-.7-1.5-1.5S33 146 34 146H64c.8 0 1.4.7 1.4 1.5s-.6 1.4-1.4 1.4zM100 149H70c-.8 0-1.4-.7-1.4-1.5s.6-1.4 1.4-1.4H100c1 0 1.5.7 1.5 1.5s-.6 1.4-1.4 1.4zM139.4 128.3h-35c-.8 0-1.4-.6-1.4-1.4V93c0-.8.6-1.4 1.4-1.4h35c.8 0 1.4.6 1.4 1.4V127c0 .7-.6 1.3-1.4 1.3zm-33.5-2.8h32V94.7h-32v30.8zM68.5 58.2H56.3c-.8 0-1.4-.6-1.4-1.4 0-.8.5-1.4 1.3-1.4h12.3c.8 0 1.4.6 1.4 1.4 0 .7-.7 1.4-1.5 1.4zM168.6 58.2H76.3c-.8 0-1.4-.6-1.4-1.4 0-.8.5-1.4 1.3-1.4h92.3c.8 0 1.4.6 1.4 1.4 0 .7-.6 1.4-1.4 1.4zM164.6 149c-.8 0-1.4-.7-1.4-1.5V134h-11.6c-.8 0-1.4-.5-1.4-1.3s.6-1.4 1.4-1.4h13c.8 0 1.4.6 1.4 1.4v15c0 .6-.6 1.2-1.4 1.2z"/>
</g></svg>
